<?xml version="1.0" encoding="UTF-8"?>
<svg width="94px" height="60px" viewBox="0 0 94 60" version="1.1" xmlns="http://www.w3.org/2000/svg" xmlns:xlink="http://www.w3.org/1999/xlink">
    <!-- Generator: Sketch 42 (36781) - http://www.bohemiancoding.com/sketch -->
    <title>nhs approved</title>
    <desc>Created with Sketch.</desc>
    <defs>
        <polygon id="path-1" points="0 59.5527 93.223 59.5527 93.223 -0.0003 0 -0.0003"></polygon>
    </defs>
    <g id="login" stroke="none" stroke-width="1" fill="none" fill-rule="evenodd">
        <g id="iPad-Pro-Landscape" transform="translate(-111.000000, -866.000000)">
            <g id="nhs-approved" transform="translate(111.000000, 866.000000)">
                <g id="Page-1">
                    <mask id="mask-2" fill="white">
                        <use xlink:href="#path-1"></use>
                    </mask>
                    <g id="Clip-1"></g>
                    <path d="M6.059718,-0.802785462 L10.564429,9.80973654 L9.233856,9.80973654 L7.935345,6.73178454 L2.677177,6.73178454 L1.378666,9.80973654 L0.048093,9.80973654 L4.552804,-0.802785462 L6.059718,-0.802785462 Z M3.142076,5.62564554 L7.470446,5.62564554 L5.306261,0.447632538 L3.142076,5.62564554 Z M15.726411,9.93798454 C14.395838,9.93798454 13.450009,9.37689954 12.856862,8.51122554 L12.856862,12.9838745 L11.654537,12.9838745 L11.654537,1.79423654 L12.856862,1.79423654 L12.856862,3.07671654 C13.450009,2.21104254 14.395838,1.66598854 15.726411,1.66598854 C18.066937,1.66598854 19.605913,3.50955354 19.605913,5.80198654 C19.605913,8.09441954 18.066937,9.93798454 15.726411,9.93798454 Z M15.566101,2.75609654 C13.78666,2.75609654 12.792738,4.15079354 12.792738,5.80198654 C12.792738,7.45317954 13.78666,8.84787654 15.566101,8.84787654 C17.345542,8.84787654 18.403588,7.45317954 18.403588,5.80198654 C18.403588,4.15079354 17.345542,2.75609654 15.566101,2.75609654 Z M25.248825,9.93798454 C23.918252,9.93798454 22.972423,9.37689954 22.379276,8.51122554 L22.379276,12.9838745 L21.176951,12.9838745 L21.176951,1.79423654 L22.379276,1.79423654 L22.379276,3.07671654 C22.972423,2.21104254 23.918252,1.66598854 25.248825,1.66598854 C27.589351,1.66598854 29.128327,3.50955354 29.128327,5.80198654 C29.128327,8.09441954 27.589351,9.93798454 25.248825,9.93798454 Z M25.088515,2.75609654 C23.309074,2.75609654 22.315152,4.15079354 22.315152,5.80198654 C22.315152,7.45317954 23.309074,8.84787654 25.088515,8.84787654 C26.867956,8.84787654 27.926002,7.45317954 27.926002,5.80198654 C27.926002,4.15079354 26.867956,2.75609654 25.088515,2.75609654 Z M34.851394,1.66598854 C32.86355,1.66598854 32.062,3.22099554 31.90169,3.76604954 L31.90169,1.79423654 L30.699365,1.79423654 L30.699365,9.80973654 L31.90169,9.80973654 L31.90169,6.28291654 C31.90169,4.51950654 32.991798,2.86831354 34.78727,2.86831354 L34.931549,2.86831354 L34.931549,1.66598854 L34.851394,1.66598854 Z M39.291981,1.66598854 C41.744724,1.66598854 43.267669,3.50955354 43.267669,5.80198654 C43.267669,8.09441954 41.744724,9.93798454 39.291981,9.93798454 C36.839238,9.93798454 35.316293,8.09441954 35.316293,5.80198654 C35.316293,3.50955354 36.839238,1.66598854 39.291981,1.66598854 Z M39.291981,8.84787654 C41.071422,8.84787654 42.065344,7.45317954 42.065344,5.80198654 C42.065344,4.15079354 41.071422,2.75609654 39.291981,2.75609654 C37.51254,2.75609654 36.518618,4.15079354 36.518618,5.80198654 C36.518618,7.45317954 37.51254,8.84787654 39.291981,8.84787654 Z M50.032751,1.79423654 L47.515884,8.52725654 L44.982986,1.79423654 L43.668444,1.79423654 L46.81052,9.80973654 L48.221248,9.80973654 L51.347293,1.79423654 L50.032751,1.79423654 Z M55.852004,8.84787654 C56.974174,8.84787654 57.743662,8.30282254 58.176499,7.50127254 L59.491041,7.50127254 C58.929956,8.94406254 57.743662,9.93798454 55.835973,9.93798454 C53.38323,9.93798454 51.78013,8.09441954 51.78013,5.80198654 C51.78013,3.50955354 53.303075,1.66598854 55.755818,1.66598854 C58.208561,1.66598854 59.731506,3.50955354 59.731506,5.80198654 L59.731506,6.28291654 L53.014517,6.28291654 C53.190858,7.70967554 54.232873,8.84787654 55.852004,8.84787654 Z M55.755818,2.75609654 C54.216842,2.75609654 53.254982,3.79811154 53.030548,5.16074654 L58.481088,5.16074654 C58.256654,3.79811154 57.294794,2.75609654 55.755818,2.75609654 Z M64.588899,1.66598854 C65.919472,1.66598854 66.865301,2.22707354 67.458448,3.09274754 L67.458448,-1.41196346 L68.660773,-1.41196346 L68.660773,9.80973654 L67.458448,9.80973654 L67.458448,8.52725654 C66.865301,9.39293054 65.919472,9.93798454 64.588899,9.93798454 C62.248373,9.93798454 60.709397,8.09441954 60.709397,5.80198654 C60.709397,3.50955354 62.248373,1.66598854 64.588899,1.66598854 Z M64.749209,8.84787654 C66.52865,8.84787654 67.522572,7.45317954 67.522572,5.80198654 C67.522572,4.15079354 66.52865,2.75609654 64.749209,2.75609654 C62.969768,2.75609654 61.911722,4.15079354 61.911722,5.80198654 C61.911722,7.45317954 62.969768,8.84787654 64.749209,8.84787654 Z M78.23128,1.66598854 C80.571806,1.66598854 82.110782,3.50955354 82.110782,5.80198654 C82.110782,8.09441954 80.571806,9.93798454 78.23128,9.93798454 C76.900707,9.93798454 75.954878,9.39293054 75.361731,8.52725654 L75.361731,9.80973654 L74.159406,9.80973654 L74.159406,-1.41196346 L75.361731,-1.41196346 L75.361731,3.09274754 C75.954878,2.22707354 76.900707,1.66598854 78.23128,1.66598854 Z M78.07097,8.84787654 C79.850411,8.84787654 80.908457,7.45317954 80.908457,5.80198654 C80.908457,4.15079354 79.850411,2.75609654 78.07097,2.75609654 C76.291529,2.75609654 75.297607,4.15079354 75.297607,5.80198654 C75.297607,7.45317954 76.291529,8.84787654 78.07097,8.84787654 Z M90.3362881,1.79423654 L89.0217461,1.79423654 L86.3926621,8.36694654 L83.8116711,1.79423654 L82.4810981,1.79423654 L85.7514221,9.69751954 L84.2926011,12.9838745 L85.5911121,12.9838745 L90.3362881,1.79423654 Z" id="Approved-by" fill="#706F6F" mask="url(#mask-2)"></path>
                    <path d="M87.7754,32.6137 C87.8124,32.5657 87.8344,32.5497 87.8404,32.5277 C88.4664,30.6057 89.0894,28.6827 89.7194,26.7617 C89.7864,26.5577 89.7024,26.4627 89.5344,26.4017 C89.1804,26.2737 88.8314,26.1347 88.4714,26.0287 C86.2444,25.3737 83.9474,25.2047 81.6464,25.1697 C80.1364,25.1467 78.6194,25.2397 77.1134,25.3787 C75.3184,25.5447 73.5994,26.0427 71.9734,26.8407 C67.7184,28.9287 66.3254,33.0417 67.0024,36.9917 C67.3484,39.0147 68.6004,40.4727 70.3644,41.4167 C71.8234,42.1967 73.3744,42.8067 74.8934,43.4707 C75.8384,43.8837 76.7984,44.2637 77.6024,44.9337 C78.2174,45.4457 78.6054,46.0807 78.6264,46.9007 C78.6604,48.2987 77.9314,49.1987 76.7244,49.7737 C75.7934,50.2177 74.7914,50.3867 73.7764,50.4897 C72.5654,50.6137 71.3574,50.5757 70.1494,50.4277 C68.7144,50.2517 67.3054,49.9757 65.9624,49.4277 C65.5394,49.2557 65.1304,49.0487 64.7154,48.8577 C64.6814,48.9087 64.6524,48.9347 64.6424,48.9677 C64.0304,50.9317 63.4214,52.8977 62.8044,54.8607 C62.7404,55.0657 62.8384,55.1137 63.0004,55.1577 C63.5604,55.3107 64.1164,55.4847 64.6794,55.6237 C67.4874,56.3187 70.3284,56.7677 73.2314,56.6567 C74.0774,56.6247 74.9214,56.5397 75.7644,56.4497 C77.8114,56.2297 79.7924,55.7517 81.6524,54.8447 C83.6674,53.8637 85.2634,52.4487 86.2134,50.3827 C86.8954,48.8997 87.1054,47.3297 87.0684,45.7087 C87.0134,43.3157 86.0894,41.3667 84.1844,39.9007 C82.7934,38.8297 81.1754,38.2007 79.5794,37.5247 C78.5444,37.0867 77.5004,36.6437 76.5354,36.0757 C75.3704,35.3907 75.0904,34.4917 75.4324,33.2847 C75.6644,32.4677 76.3194,32.0387 77.0784,31.7617 C77.9274,31.4517 78.8154,31.3597 79.7134,31.2997 C81.8244,31.1587 83.9014,31.3197 85.9274,31.9467 C86.5474,32.1377 87.1514,32.3867 87.7754,32.6137 L87.7754,32.6137 Z M48.6704,25.7127 C48.5334,25.6887 48.4524,25.6627 48.3714,25.6627 C45.8224,25.6607 43.2734,25.6627 40.7244,25.6577 C40.4934,25.6577 40.4224,25.7597 40.3794,25.9757 C39.9544,28.0497 39.5144,30.1197 39.0834,32.1917 C38.2144,36.3597 37.3454,40.5267 36.4814,44.6947 C35.7154,48.3897 34.9604,52.0867 34.1834,55.7787 C34.1154,56.1047 34.2164,56.1567 34.4964,56.1567 C36.9964,56.1527 39.4964,56.1527 41.9974,56.1567 C42.2374,56.1577 42.3664,56.0967 42.4214,55.8327 C43.2634,51.7217 44.1184,47.6137 44.9634,43.5047 C45.0174,43.2447 45.1014,43.1147 45.4084,43.1167 C48.3214,43.1297 51.2344,43.1287 54.1464,43.1187 C54.4904,43.1177 54.5464,43.2107 54.4764,43.5447 C53.6284,47.5927 52.7964,51.6437 51.9594,55.6947 C51.8664,56.1437 51.8714,56.1537 52.3144,56.1537 C54.7784,56.1547 57.2424,56.1487 59.7064,56.1607 C60.0134,56.1627 60.1294,56.0487 60.1874,55.7637 C60.7924,52.8017 61.4014,49.8417 62.0174,46.8817 C63.4384,40.0507 64.8644,33.2207 66.2864,26.3897 C66.3344,26.1627 66.3534,25.9287 66.3924,25.6597 L65.8924,25.6597 C63.5984,25.6597 61.3044,25.6537 59.0104,25.6637 C58.0464,25.6677 58.2324,25.4827 58.0234,26.4867 C57.3004,29.9557 56.5894,33.4267 55.8884,36.9007 C55.8224,37.2297 55.6894,37.3177 55.3604,37.3157 C52.4714,37.3017 49.5834,37.3077 46.6944,37.3077 L46.2864,37.3077 C47.0864,33.4147 47.8764,29.5737 48.6704,25.7127 L48.6704,25.7127 Z M25.5204,46.7027 C25.4704,46.5567 25.4544,46.5147 25.4414,46.4707 C24.2264,42.3627 23.0124,38.2527 21.7974,34.1437 C21.0014,31.4507 20.2024,28.7587 19.4094,26.0647 C19.3394,25.8297 19.2834,25.6527 18.9654,25.6537 C15.7734,25.6647 12.5814,25.6627 9.3894,25.6567 C9.1474,25.6567 9.0494,25.7517 9.0014,25.9817 C8.4974,28.3727 7.9854,30.7607 7.4744,33.1507 C6.6324,37.0887 5.7904,41.0267 4.9484,44.9657 C4.1884,48.5257 3.4284,52.0867 2.6714,55.6477 C2.5644,56.1507 2.5714,56.1537 3.0774,56.1547 L9.7774,56.1547 C10.3414,56.1547 10.3354,56.1527 10.4444,55.6027 C10.8874,53.3717 11.3344,51.1417 11.7824,48.9127 C12.5734,44.9767 13.3654,41.0427 14.1574,37.1077 C14.2804,36.4927 14.4074,35.8797 14.5324,35.2657 C14.6284,35.3787 14.6624,35.4817 14.6934,35.5857 C16.7224,42.2937 18.7544,49.0007 20.7734,55.7117 C20.8764,56.0507 21.0224,56.1637 21.3774,56.1627 C24.2654,56.1487 27.1544,56.1547 30.0434,56.1547 C31.0704,56.1547 31.0754,56.1557 31.2884,55.1557 C32.4254,49.8087 33.5604,44.4617 34.6974,39.1157 C35.4684,35.4837 36.2414,31.8527 37.0114,28.2207 C37.1874,27.3957 37.3544,26.5697 37.5354,25.6947 C37.3394,25.6807 37.1884,25.6617 37.0374,25.6617 C34.7794,25.6597 32.5214,25.6687 30.2634,25.6517 C29.8834,25.6487 29.7494,25.7727 29.6774,26.1407 C29.2214,28.4787 28.7394,30.8127 28.2664,33.1477 C27.5024,36.9287 26.7374,40.7107 25.9714,44.4917 C25.8294,45.1957 25.6844,45.8987 25.5204,46.7027 L25.5204,46.7027 Z M0.0004,59.5527 L93.2234,59.5527 L93.2234,22.2637 L0.0004,22.2637 L0.0004,59.5527 Z" id="Fill-2" fill="#007AC2" mask="url(#mask-2)"></path>
                    <path d="M25.5205,46.7031 C25.6845,45.8991 25.8295,45.1961 25.9715,44.4921 C26.7375,40.7101 27.5015,36.9291 28.2665,33.1471 C28.7395,30.8121 29.2215,28.4791 29.6775,26.1411 C29.7495,25.7731 29.8835,25.6491 30.2635,25.6521 C32.5215,25.6691 34.7795,25.6601 37.0375,25.6611 C37.1885,25.6611 37.3395,25.6811 37.5355,25.6951 C37.3545,26.5691 37.1875,27.3961 37.0115,28.2211 C36.2415,31.8531 35.4685,35.4841 34.6975,39.1161 C33.5605,44.4621 32.4255,49.8091 31.2885,55.1551 C31.0755,56.1551 31.0705,56.1541 30.0425,56.1541 C27.1545,56.1541 24.2655,56.1481 21.3765,56.1621 C21.0225,56.1641 20.8755,56.0511 20.7735,55.7121 C18.7545,49.0011 16.7225,42.2931 14.6935,35.5851 C14.6625,35.4821 14.6275,35.3791 14.5325,35.2651 C14.4075,35.8791 14.2805,36.4931 14.1575,37.1071 C13.3655,41.0421 12.5735,44.9771 11.7825,48.9121 C11.3335,51.1421 10.8875,53.3721 10.4445,55.6021 C10.3345,56.1521 10.3415,56.1541 9.7775,56.1541 C7.5435,56.1551 5.3105,56.1551 3.0775,56.1541 C2.5715,56.1541 2.5645,56.1511 2.6705,55.6471 C3.4285,52.0861 4.1885,48.5261 4.9485,44.9651 C5.7905,41.0271 6.6325,37.0891 7.4745,33.1501 C7.9855,30.7611 8.4975,28.3721 9.0005,25.9821 C9.0495,25.7521 9.1475,25.6571 9.3895,25.6571 C12.5815,25.6621 15.7735,25.6651 18.9655,25.6541 C19.2835,25.6531 19.3395,25.8291 19.4095,26.0641 C20.2025,28.7591 21.0005,31.4511 21.7975,34.1441 C23.0125,38.2531 24.2265,42.3621 25.4415,46.4711 C25.4545,46.5151 25.4705,46.5571 25.5205,46.7031" id="Fill-3" fill="#FFFFFF" mask="url(#mask-2)"></path>
                    <path d="M48.6699,25.7124 C47.8759,29.5734 47.0859,33.4154 46.2859,37.3074 L46.6939,37.3074 C49.5829,37.3074 52.4719,37.3014 55.3599,37.3164 C55.6899,37.3174 55.8219,37.2294 55.8889,36.9004 C56.5899,33.4274 57.3009,29.9564 58.0239,26.4864 C58.2329,25.4834 58.0459,25.6684 59.0109,25.6634 C61.3049,25.6534 63.5989,25.6604 65.8929,25.6604 L66.3929,25.6604 C66.3539,25.9294 66.3339,26.1624 66.2859,26.3904 C64.8639,33.2204 63.4389,40.0504 62.0179,46.8814 C61.4009,49.8414 60.7919,52.8024 60.1879,55.7644 C60.1289,56.0484 60.0139,56.1624 59.7059,56.1614 C57.2419,56.1494 54.7779,56.1544 52.3149,56.1534 C51.8709,56.1534 51.8659,56.1444 51.9589,55.6944 C52.7959,51.6444 53.6279,47.5924 54.4769,43.5444 C54.5469,43.2104 54.4899,43.1174 54.1469,43.1184 C51.2339,43.1284 48.3209,43.1294 45.4079,43.1164 C45.1019,43.1154 45.0179,43.2454 44.9639,43.5044 C44.1179,47.6144 43.2639,51.7224 42.4209,55.8324 C42.3659,56.0964 42.2369,56.1574 41.9969,56.1574 C39.4959,56.1524 36.9959,56.1524 34.4959,56.1564 C34.2169,56.1574 34.1149,56.1054 34.1839,55.7784 C34.9599,52.0864 35.7159,48.3894 36.4819,44.6944 C37.3459,40.5264 38.2149,36.3594 39.0829,32.1914 C39.5149,30.1194 39.9539,28.0494 40.3789,25.9764 C40.4229,25.7594 40.4929,25.6574 40.7249,25.6584 C43.2739,25.6624 45.8219,25.6604 48.3709,25.6634 C48.4519,25.6634 48.5329,25.6894 48.6699,25.7124" id="Fill-4" fill="#FFFFFF" mask="url(#mask-2)"></path>
                    <path d="M87.7754,32.6137 C87.1514,32.3867 86.5474,32.1377 85.9274,31.9467 C83.9014,31.3197 81.8244,31.1587 79.7134,31.2997 C78.8154,31.3597 77.9274,31.4517 77.0784,31.7617 C76.3194,32.0387 75.6644,32.4677 75.4324,33.2847 C75.0904,34.4917 75.3704,35.3907 76.5354,36.0757 C77.5004,36.6437 78.5444,37.0867 79.5794,37.5247 C81.1754,38.2007 82.7934,38.8297 84.1844,39.9007 C86.0894,41.3667 87.0134,43.3157 87.0684,45.7087 C87.1054,47.3297 86.8954,48.8997 86.2134,50.3827 C85.2634,52.4487 83.6674,53.8637 81.6524,54.8447 C79.7924,55.7517 77.8114,56.2297 75.7644,56.4497 C74.9214,56.5397 74.0774,56.6247 73.2314,56.6567 C70.3284,56.7677 67.4874,56.3187 64.6794,55.6237 C64.1164,55.4847 63.5604,55.3107 63.0004,55.1577 C62.8384,55.1137 62.7404,55.0657 62.8044,54.8607 C63.4214,52.8977 64.0304,50.9317 64.6424,48.9677 C64.6524,48.9347 64.6814,48.9087 64.7154,48.8577 C65.1304,49.0487 65.5394,49.2557 65.9624,49.4277 C67.3054,49.9757 68.7144,50.2517 70.1494,50.4277 C71.3574,50.5757 72.5654,50.6137 73.7764,50.4897 C74.7914,50.3867 75.7934,50.2177 76.7244,49.7737 C77.9314,49.1987 78.6604,48.2987 78.6264,46.9007 C78.6054,46.0807 78.2174,45.4457 77.6024,44.9337 C76.7984,44.2637 75.8384,43.8837 74.8934,43.4707 C73.3744,42.8067 71.8234,42.1967 70.3644,41.4167 C68.6004,40.4727 67.3484,39.0147 67.0024,36.9917 C66.3254,33.0417 67.7184,28.9287 71.9734,26.8407 C73.5994,26.0427 75.3184,25.5447 77.1134,25.3787 C78.6194,25.2397 80.1364,25.1467 81.6464,25.1697 C83.9474,25.2047 86.2444,25.3737 88.4714,26.0287 C88.8314,26.1347 89.1804,26.2737 89.5344,26.4017 C89.7024,26.4627 89.7864,26.5577 89.7194,26.7617 C89.0894,28.6827 88.4664,30.6057 87.8404,32.5277 C87.8344,32.5497 87.8124,32.5657 87.7754,32.6137" id="Fill-5" fill="#FFFFFF" mask="url(#mask-2)"></path>
                </g>
            </g>
        </g>
    </g>
</svg>